<svg xmlns="http://www.w3.org/2000/svg" width="288" height="288" viewBox="0 0 288 288"><path d="M44.112 59.24h199.776v169.52H44.112z"/><path fill="#CC2229" d="M58.358 115.44h79.919v25.456H58.358zm128.402.316h42.109v25.457H186.76z"/><path fill="#BBBCBF" d="M58.358 73.706h79.919v25.456H58.358zm90.047 0h81.007v25.456h-81.007zm-90.047 84.95h79.919v25.456H58.358zm90.589 0h79.922v25.456h-79.922z"/><path fill="#BBBCBF" d="M148.405 73.706h27.233v110.406h-27.233zm53.232 74.298h27.232v35.556h-27.232z"/><path d="M68.654 206.392H60.77v7.312h8.786v2.196H58.152v-20.281h10.953v2.197H60.77v6.409h7.884v2.167zm9.026 9.508l-6.62-20.281h2.828l3.16 9.99c.873 2.738 1.625 5.206 2.167 7.583h.06c.572-2.347 1.415-4.905 2.317-7.553l3.431-10.021h2.798L80.568 215.9H77.68zm13.902-6.379l-2.106 6.379h-2.708l6.891-20.281h3.159l6.921 20.281h-2.798l-2.167-6.379h-7.192zm6.649-2.046l-1.986-5.837c-.452-1.324-.752-2.527-1.053-3.701h-.061a61.563 61.563 0 0 1-1.023 3.671l-1.986 5.867h6.109zm8.485 8.425v-20.281h2.858l6.5 10.261c1.504 2.378 2.678 4.514 3.641 6.59l.06-.029c-.241-2.709-.301-5.176-.301-8.335v-8.486h2.468v20.28h-2.648l-6.439-10.291c-1.414-2.257-2.768-4.573-3.792-6.771l-.09.03c.151 2.558.211 4.995.211 8.365v8.666h-2.468zm41.614-.902c-1.174.421-3.491 1.113-6.229 1.113-3.069 0-5.597-.782-7.583-2.679-1.745-1.685-2.828-4.393-2.828-7.553.03-6.048 4.182-10.471 10.983-10.471 2.347 0 4.183.511 5.056.933l-.633 2.137c-1.084-.481-2.437-.873-4.483-.873-4.935 0-8.154 3.069-8.154 8.154 0 5.146 3.099 8.185 7.824 8.185 1.715 0 2.888-.24 3.49-.541v-6.049h-4.122v-2.106h6.681v9.75zm21.334-9.449c0 6.981-4.244 10.683-9.42 10.683-5.355 0-9.117-4.152-9.117-10.291 0-6.439 4.002-10.652 9.42-10.652 5.535-.001 9.117 4.242 9.117 10.26zm-15.738.331c0 4.333 2.348 8.215 6.469 8.215 4.154 0 6.5-3.821 6.5-8.425 0-4.032-2.105-8.245-6.469-8.245-4.334 0-6.5 4.002-6.5 8.455zm18.535-9.989a37.458 37.458 0 0 1 5.566-.422c3.762 0 6.439.873 8.215 2.528 1.807 1.654 2.859 4.002 2.859 7.281 0 3.311-1.023 6.019-2.92 7.884-1.895 1.896-5.023 2.919-8.967 2.919-1.865 0-3.43-.091-4.754-.241v-19.949zm2.617 17.933c.662.12 1.625.15 2.648.15 5.598 0 8.637-3.129 8.637-8.605.029-4.785-2.678-7.824-8.215-7.824-1.354 0-2.377.121-3.07.271v16.008zm34.754-8.275c0 6.981-4.242 10.683-9.418 10.683-5.355 0-9.117-4.152-9.117-10.291 0-6.439 4.002-10.652 9.418-10.652 5.537-.001 9.117 4.242 9.117 10.26zm-15.736.331c0 4.333 2.346 8.215 6.469 8.215 4.152 0 6.5-3.821 6.5-8.425 0-4.032-2.107-8.245-6.471-8.245-4.332 0-6.498 4.002-6.498 8.455zm19.136 10.02v-20.281h2.857l6.5 10.261c1.504 2.378 2.678 4.514 3.641 6.59l.061-.029c-.24-2.709-.301-5.176-.301-8.335v-8.486h2.467v20.28h-2.648l-6.439-10.291c-1.414-2.257-2.768-4.573-3.791-6.771l-.09.03c.15 2.558.211 4.995.211 8.365v8.666h-2.468z" fill="#FFF"/></svg>